<svg xmlns="http://www.w3.org/2000/svg" width="985.6" height="656.3" viewBox="0 0 985.6 656.3" xmlns:xlink="http://www.w3.org/1999/xlink"><path d="M741.3 25.4C733.8 29.5 721.8 13 719 21c-2.7 8 3.9 40.7 7.3 48.6 1.7 3.9 4 7.4 5.7 11.3a17 17 0 0 1 1 12.4c-2.5 7-10.9 9.8-15 15.9-5 7-3 16.6-.7 25 2 7 4 14.3 7.8 20.7a30 30 0 0 0 16.6 14c9 2.7 18.7-.5 27.5-4a99.4 99.4 0 0 0 23.8-13c7.1-5.7 13-13.2 15.6-21.9 3.1-11 .5-23-5-33-5.3-10-13.4-18.3-21.6-26.2a430.2 430.2 0 0 0-44-36.9l3.2-8.6Z" fill="#2f2e41"/><polygon points="852 587.2 845 652.8 844.7 655.8 765.1 655.5 764.7 652.5 756.3 592.4 852 587.2" fill="#ffb6b6"/><path d="M730.4 652.4v3l-82.6-.3-.2-3-5.1-57.1 85.3-10.4s2.8 30.3 2.6 67.8Z" fill="#ffb6b6"/><path d="M721.2 141.6a44 44 0 0 0 55 11.5c26.6-14 63-30.2 69.3-17.3 10.4 20.7 10.4 40.8 10.4 40.8l10.3 241.2s5.2 97.4-59.5 88.8c-64.6-8.6-165.5 27.6-165.5 27.6l10.3-106.9L679 387l11.1-115.5-19.2-93 23.3-10.4s2.6-18 10.4-18c7.7 0 9.6-17.5 16.4-8.8l.2.3Z" fill="#17925a"/><polygon points="861.5 655.9 844.7 655.8 765.1 655.5 754.8 655.5 754.2 652.5 738.2 571.7 735.7 652.4 735.6 655.4 730.4 655.4 647.8 655.1 641.9 655 641.9 652 641.5 595 641.2 542.2 641.2 534.2 641.2 534.2 665.9 484.1 673.1 469.4 674.6 466.4 689 437.2 819.7 419.1 821.7 418.8 857.2 413.9 857.5 428.4 857.6 436.7 858.1 466.4 858.2 469.4 858.3 472.9 861.5 652.9 861.5 655.9" fill="#2f2e41"/><circle cx="759.9" cy="79.9" r="54" fill="#ffb6b6"/><path d="M820.8 164.5a101 101 0 0 0-18 62.2c-14.4-7-24-21.6-27.3-37.2a87.7 87.7 0 0 1 4.7-47.2c8-22.5.5-47.7-18.8-61.7a129 129 0 0 1-33-34.8c-5-7.6-9.2-17.2-5.5-25.6C726.3 12.6 735 9 743 6.6 761.4 1 780.8-2 799.7 1.5a64.4 64.4 0 0 1 45.8 31.2c8.9 17 6.6 40-7.9 52.6a11 11 0 0 1 7.4 11 11 11 0 0 1-9 9.8c3-.1 4.8 4 3.7 6.8-1 3-3.9 4.7-6.6 6.2-3.9 2.1-8.1 4.3-8.2 9.9 0 2.2.8 4.4 2.1 6.2 3.2 4.3 8.2 6.3 13.1 8.2a29.7 29.7 0 0 0-20.4 22.8l1-1.7Z" fill="#2f2e41"/><g><path id="uuid-949a288c-1385-4c96-9df8-4f861626eeb5-239" d="M590.4 143.6c-1.5-15.5 5.3-28.8 15.2-29.7 9.8-1 19 10.8 20.4 26.3.7 6.2-.1 12.4-2.3 18.2L629 224l-30.9 2-2-65a38.9 38.9 0 0 1-5.8-17.4Z" fill="#ffb6b6"/><path d="M758.5 174.7s-50.4-29.6-60.8-25.2c-10.4 4.5-60.8 80-60.8 80l-4.6-13.7-35.4 3.4s-20.8 96.3 25.2 87.4c46-8.9 121.5-91.9 121.5-91.9l14.9-40Z" fill="#17925a"/></g><path d="M290.9 334s28.5-16.7 36.1-1.2c7.7 15.5 78.5 200 78.5 200l-45.6 8.9-69-207.7Z" fill="#17925a"/><path d="m228.8 223.8 1.4 1.9c-5 2.9-5.8 10.1-3.4 15.4 2.3 5.3 6.9 9.2 10.8 13.5 4 4.2 7.5 9.5 7.1 15.3-.4 6.5-5.7 11.8-6.4 18.3-1 9.4 7.7 17.6 7.3 27.1-.4 7.2-6 13-11.4 17.7-4.4 3.7-9 7.4-12 12.2-.8 1.3-1.4 2.7-2 4.1-2.1 6.8 0 14.1 2.7 20.6 2.8 6.5 6.3 12.9 7.1 20 .9 7-1.8 15-8.2 18a75.6 75.6 0 0 0 38.9-15c15-11.4 25.7-27.8 35.9-43.8l2.5-4 6.8-10.6c6.5-10.2 13-20.5 16.6-32 3.2-10.7 3.8-22 5.1-33 .7-5.4 1.5-10.8 1.7-16.2a65.4 65.4 0 0 0-68.6-67.3c-10.8.5-21.4 3.2-31.8 6.5a65.5 65.5 0 0 0-32.8 36.1c10-5.3 21.7-7 32.7-4.8Z" fill="#2f2e41"/><path d="m306 321-51-20-1.4 20-44.7 7-21 95 19 59 142 4-5-20s23-26 9-68l-1.5-10.7c-4.1-28-20.9-52.5-45.5-66.4Z" fill="#17925a"/><circle cx="277.5" cy="254.7" r="45.3" fill="#a0616a"/><path d="M192 253.3c.2 5.4 1 10.8 1.7 16.2 1.3 11 1.9 22.3 5.1 33a134.5 134.5 0 0 0 16.6 32c2.3 3.5 4.6 7 6.8 10.7l2.5 4c10.3 16 20.9 32.3 36 43.7a75.6 75.6 0 0 0 38.9 14.9c-6.5-2.9-9.2-11-8.3-18 .8-7 4.4-13.4 7.1-19.9 2.8-6.5 4.8-13.8 2.6-20.6-.4-1.4-1.1-2.8-2-4.1-2.8-4.8-7.5-8.5-11.8-12.2-5.6-4.7-11.1-10.5-11.4-17.7-.5-9.5-6.5-6.3-7.6-15.7-.7-6.5-9.4-17.5-9.8-24a46.7 46.7 0 0 1 7.1-24c4-4.2.4-16.9 2.7-22.2 2.4-5.3 28-.8 23-3.7l1.3-2a49.3 49.3 0 0 1 38.9 8.9c4.7-8.7-1-19.6-8.5-25.8a81 81 0 0 0-25.8-12.7l-4.7-1.6c-10.4-3.3-21-6-31.7-6.5a65.5 65.5 0 0 0-68.6 67.3Z" fill="#2f2e41"/><path d="m982.8 615.4-63.2-132.7a28.7 28.7 0 0 0-25.8-16.3H96.3A28.4 28.4 0 0 0 71 481.7l-67.7 129c-4.7 9-4.4 19.4.8 28a28.4 28.4 0 0 0 24.4 14l613.4 2.3h6l82.5.4h24.4l10.3.1 79.6.3 16.8.1 95.3.4h.2a28.4 28.4 0 0 0 25.8-40.9Z" fill="#fff"/><path d="m982.8 615.4-63.2-132.7a28.7 28.7 0 0 0-25.8-16.3H96.3A28.4 28.4 0 0 0 71 481.7l-67.7 129c-4.7 9-4.4 19.4.8 28a28.4 28.4 0 0 0 24.4 14l613.4 2.3h6l82.5.4h24.4l10.3.1 79.6.3 16.8.1 95.3.4h.2a28.4 28.4 0 0 0 25.8-40.9Zm-4.2 26a25.4 25.4 0 0 1-21.6 11.9h-.1l-95.4-.4H845l-80.3-.4h-10.5l-18.5-.1h-5.3l-82.8-.4h-5.7l-613.4-2.4c-9 0-17.2-4.6-21.8-12.4-4.6-7.7-5-17-.7-25l67.6-129a25.5 25.5 0 0 1 22.7-13.8h797.5c9.8 0 18.9 5.8 23.1 14.6l63.2 132.7c3.8 8 3.2 17.2-1.5 24.7Z" fill="#3f3d56"/><polygon points="283.4 562.4 434.4 507.4 358.9 477.1 208.4 516.4 283.4 562.4" fill="#f2f2f2"/><polygon points="513.4 479.4 496.4 533.4 695.4 545.4 678.4 484.4 513.4 479.4" fill="#f2f2f2"/><path id="uuid-bc099db1-a2ce-4512-8b55-449b58adbd20-240" d="M278.8 488.7c14 1.4 24.7 9.7 23.8 18.6-1 9-13 15-27 13.6-5.6-.5-11-2.3-15.7-5.3l-59.2-6.6 3.7-27.7 58 9.5c5.2-2 10.9-2.8 16.4-2.1Z" fill="#a0616a"/><path d="M219.4 333.4 209 328s-16.5.5-27.5 11.5-100 137-100 137-22 34 33 39 116 5 116 5l5-41-83-9 58.1-77 9-60Z" fill="#17925a"/><g><g><g><path d="M531.4 320.1a117.7 117.7 0 0 1-62.5 1.3l.2-2.3 5.4-52 .3-3.2-5-15H531l-1 14.6-.3 5.3.5 1.7 13.5 43 .6 2c-4.1 1.8-8.4 3.3-12.9 4.6Z" fill="#17925a"/><path d="M468.9 321.4c-14.6-3.6-28-10-40-18.3-4.8-2.7-9.6-5.6-14.1-8.6l2.2-1.1 56.6-28.3.9 2 24.3 55.9.9 2h-2c-10 0-19.6-1.2-28.8-3.6Z" fill="#2f2e41"/><path d="m592 278.5-.8 1c-4.2 5.4-8.9 10.4-14 15V281.8s4-3 9-3.7a13.8 13.8 0 0 1 5.8.3Z" fill="#2f2e41"/><path d="M577.3 294.4a118.8 118.8 0 0 1-45.9 25.7v-2l-1.2-47.6-.1-7 56 14.7 3 .8 2.1.5c-4.2 5.4-8.9 10.4-14 15Z" fill="#2f2e41"/><circle cx="501" cy="187.8" r="44.9" fill="#a0616a"/></g><path d="M531.4 318a116.2 116.2 0 0 1-32.6 5l.9 2c11-.2 21.7-1.9 31.8-4.9l-.1-2ZM417 293.4a118.6 118.6 0 0 1-38.2-85.2c-23.6 27.2-.2 62.1 36 86.3 4.5 3 9.3 6 14.2 8.6-4.2-3-8.2-6.3-12-9.7ZM591 132a118.8 118.8 0 0 0-212.1 76.2l2-2.2c33-34 52.4-117 117-117a116.9 116.9 0 0 1 92 189l-.7 1a117.6 117.6 0 0 1-90.3 44h-1c-9.1 0-18.8-1.4-28.7-4-13.5-3.4-27.3-9-40.1-16a118.5 118.5 0 0 0 162.3-23.5l.7-1 1-1.3a118.1 118.1 0 0 0 23.7-71.2c0-28-9.6-53.7-25.8-74Z" fill="#e6e6e6"/></g><path d="M460.8 211.6c-8-7.6-13.7-17.7-8-39.2.3-1.6-.8-3.3-1.9-4.6-1-1.3-3.1-1.8-4.4-.8 1-2.7 13.5-12.4 14.4-15-1 1.4-9.2 4.4-9.9 2.8s0-3.6.5-5.2l3.4-10.1c.9-2.5 4.3.5 6-1.6 3-3.6-.4-7.5 4.3-8.5 15.3-3.4 31.5-6.4 46.3-1.5a90.8 90.8 0 0 1 18.3 9.3l10.7 6.6c6 3.7 12.7 8.1 14.4 15.1l-11.2-4c2.5 5.3 5 10.7 6.2 16.5 1.1 5.8-2 27.5-5 32.5-2.6 4.5-4.5-7.5-5.3-2.4 1-10-3.6-20.3-11.5-26.4-1.7-1.3-3.5-2.5-4.3-4.4-.8-2.2 0-4.8-1-6.8-1.5-2.5-5-2.7-7.7-1.7-2.7 1-5 2.8-7.8 3.4-7.4 1.8-14.1-5.2-21.7-5.7-7.2-.5-13.6 5.1-16.6 11.7-3 6.6-11.3 5.2-12 12.3-.9 7.2 10.5 21.4 6 27l-2.2.7Z" fill="#2f2e41"/><path d="m455.1 278.6-3.3-2.6-.8-.6c-.8-.6-1.7-.8-2.7-.6l-3.9 1c-.4.1-.8 0-1.1-.3l-4.4-4.4c-.3-.3-.5-.7-.4-1.1l1-4c.3-.9 0-1.9-.5-2.6l-3.3-4.2-.2-.3a3.1 3.1 0 0 0-4.4 0l-1.9 1.9a5 5 0 0 0-1.2 5.1 33.2 33.2 0 0 0 20.4 20.5 5 5 0 0 0 5.2-1.3l1.8-1.8a3.1 3.1 0 0 0-.3-4.7Zm-1 3.3-1.9 1.9a3 3 0 0 1-3.2.8 30.7 30.7 0 0 1-11.8-7.5 31.5 31.5 0 0 1-7.4-11.8 3 3 0 0 1 .8-3.2l1.8-1.8.1-.1c.6-.4 1.3-.3 1.7.2l3.2 4.1c.3.3.4.7.3 1l-1 4c-.3 1 0 2.2.8 3l4.4 4.3a3 3 0 0 0 3 .9l3.9-1c.3-.1.7 0 1 .2l4.2 3.2v.1c.5.5.5 1.3 0 1.7Z" fill="#ccc"/><g><path d="M494.2 269.6c.5 0 .9.4.9.9v1.8a7.2 7.2 0 0 0 14.3 0v-1.8a.9.9 0 1 1 1.8 0v1.8a9 9 0 0 1-8 8.9v3.6h5.3a.9.9 0 1 1 0 1.8h-12.6a.9.9 0 1 1 0-1.8h5.4v-3.6a9 9 0 0 1-8-9v-1.7c0-.5.4-1 .9-1Z" fill="#ccc"/><path d="M502.2 258c-3 0-5.4 2.3-5.4 5.3v9a5.4 5.4 0 0 0 10.8 0v-9c0-3-2.4-5.4-5.4-5.4Zm3.6 14.3a3.6 3.6 0 0 1-7.2 0v-9a3.6 3.6 0 1 1 7.2 0v9Z" fill="#ccc"/></g><g><path d="M564.1 258.3c-2.8-1-5.8.5-6.8 3.3l1.5 1.6a3.6 3.6 0 0 1 7.2.2v7l1.8 1.7v-8.7c0-2.3-1.5-4.4-3.7-5.1Zm4.6 26.5h-5.4v-3.6c1.6-.1 3-.7 4.4-1.6l-1.3-1.3a7.2 7.2 0 0 1-11.1-6v-1.8c0-.1 0-.3-.2-.4a.9.9 0 0 0-1.2-.3c-.2.1-.4.4-.4.7v1.8a9 9 0 0 0 8 9v3.5h-5.3a.9.9 0 1 0 0 1.8h12.5a.9.9 0 0 0 0-1.8Zm1.8-15.2c-.5 0-1 .4-1 1V273.7l1.4 1.4a10 10 0 0 0 .5-2.9v-1.8c0-.5-.4-.9-1-.9Z" fill="#ccc"/><path d="m566.1 273-13.8-13.8-1.3 1.2 11.7 11.6 9.8 9.9 1.3-1.3-7.7-7.6Zm-2.4 2.6a3.6 3.6 0 0 1-4.9-3.3v-1.6L557 269v3.3a5.4 5.4 0 0 0 8 4.7l-1.3-1.4Z" fill="#ccc"/></g></g><path id="uuid-cb65f836-e7d9-440e-b153-5c66ba7afb8d-241" d="M805 468.4c-12 8.8-26.1 9.9-31.7 2.3-5.6-7.6-.5-20.8 11.3-29.6a37 37 0 0 1 16-7l50.8-36.8 16.7 24.2-51.8 33.6a37 37 0 0 1-11.4 13.3Z" fill="#ffb6b6"/><path d="M837 169.4s40.9 1.3 48.6 29.8a572.5 572.5 0 0 1 20.7 173.3s13 54.3-20.7 51.7L839.1 445l-31-41.4 25.8-31 3-203Z" fill="#17925a"/></svg>