<svg xmlns="http://www.w3.org/2000/svg" data-name="Layer 1" width="822" height="595.3" viewBox="0 0 822 595.3" xmlns:xlink="http://www.w3.org/1999/xlink"><path d="M695.2 7v222l-2-2.1-1.2-1.3a242.6 242.6 0 0 0-210.8-68.4c-27.5 4.5-53.4 11.3-68.8 21.7-116.3 78.4-248.3 3.7-285.2-17.2l-2-1.1V7a7 7 0 0 1 7-7h556a7 7 0 0 1 7 7Z" fill="#3f3d56"/><path d="m413.7 340.2-15 3.3c-1.7 10-1.4 50.1-1.4 50.1L396 432a6.8 6.8 0 1 0 11.7 1l2-47.4Z" fill="#ffb6b6"/><path d="M396.4 301.5A16.2 16.2 0 0 1 416 317l.2 9.7s3.8 49.5.3 59.2l-5 27.9-15.8 2-.8-29.4s4.7-32.4-.4-37.6c-3.1-3.3-8.1-16.6-10.6-28a16.2 16.2 0 0 1 12.5-19.3Z" fill="#17925a"/><path d="M284.6 564a.6.6 0 0 1-.5-.5l-22.8-164.3-45.8 164.5a.6.6 0 0 1-.9-.7L261 397.7a.6.6 0 0 1 .5-.2.6.6 0 0 1 .4.3l23.2 165.4a.6.6 0 0 1-.5.7Z" fill="#e6e6e6"/><path d="M251.8 564a.6.6 0 0 1-.6-.7L261 398a.6.6 0 1 1 1 .1l-9.6 165.3a.6.6 0 0 1-.5.5Z" fill="#e6e6e6"/><path d="M336 366.3a7.2 7.2 0 0 1-3 7.8 7 7 0 0 1-1.3.6L229.1 417a7.2 7.2 0 0 1-9.3-3.9 7.1 7.1 0 0 1-.4-1 7.2 7.2 0 0 1 4.3-8.3l102.5-42.3a.4.4 0 0 1 .1 0 7.2 7.2 0 0 1 9.6 5Z" fill="#e6e6e6"/><path d="M230.6 389.8a3 3 0 0 1 3.7 2.2l2 8a3 3 0 0 1-2.2 3.7 3 3 0 0 1-3.7-2.2l-2-8a3 3 0 0 1 2.2-3.7Z" fill="#e6e6e6"/><path d="m224.4 390.2 11.8-3a2 2 0 0 1 2.3 1.4 2 2 0 0 1-1.4 2.4l-11.7 3a2 2 0 0 1-2.4-1.4 2 2 0 0 1 1.4-2.4Z" fill="#e6e6e6"/><path d="M219.9 413.5a7.2 7.2 0 0 1 1.4-8.2 9.4 9.4 0 0 1 8.2 5.3 9.3 9.3 0 0 1 .8 5.8 7.2 7.2 0 0 1-10.4-2.9Z" fill="#ccc"/><ellipse cx="566.8" cy="724.3" rx="1.4" ry="9.5" transform="rotate(-87.8 393.4 746.4)" fill="#e6e6e6"/><ellipse cx="626.7" cy="729.9" rx="1.4" ry="9.5" transform="rotate(-87.8 453.3 752)" fill="#3f3d56"/><ellipse cx="542.6" cy="733.7" rx="1.4" ry="9.5" transform="rotate(-87.8 369.2 755.7)" fill="#ff6584"/><ellipse cx="607.2" cy="742.6" rx="1.4" ry="9.5" transform="rotate(-87.8 433.8 764.7)" fill="#ff6584"/><ellipse cx="518.4" cy="736.2" rx="1.3" ry="4.2" transform="rotate(-89.7 347.7 754.9)" fill="#e6e6e6"/><ellipse cx="541.7" cy="741.5" rx="1.3" ry="4.2" transform="rotate(-89.7 371 760.2)" fill="#e6e6e6"/><ellipse cx="503.7" cy="743.5" rx="1.3" ry="4.2" transform="rotate(-89.7 333 762.3)" fill="#3f3d56"/><ellipse cx="583.5" cy="734.4" rx="1.3" ry="4.2" transform="rotate(-89.7 412.8 753.1)" fill="#e6e6e6"/><ellipse cx="556.4" cy="729.2" rx="1.3" ry="4.2" transform="rotate(-89.7 385.7 747.9)" fill="#ff6584"/><ellipse cx="601.5" cy="726.3" rx="1.3" ry="4.2" transform="rotate(-89.7 430.7 745)" fill="#3f3d56"/><ellipse cx="567.2" cy="741.8" rx="1.3" ry="4.2" transform="rotate(-89.7 396.5 760.5)" fill="#3f3d56"/><path d="M688.2 0h-556a7 7 0 0 0-7 7v581a7 7 0 0 0 7 7h556a7 7 0 0 0 7-7V7a7 7 0 0 0-7-7Zm5 588a5 5 0 0 1-5 5h-556a5 5 0 0 1-5-5V7a5 5 0 0 1 5-5h556a5 5 0 0 1 5 5ZM511.7 1 510 0h-58.4a59 59 0 0 0-1.2 2h63l-1.7-1ZM125.2 198.5v14.9h.8l-.5 28.6-.3-.1v2.8l.2.1-.2 12v41.4h2V191.7q-.8 3.2-2 6.8ZM511.7 1 510 0h-58.4a59 59 0 0 0-1.2 2h63l-1.7-1Z" fill="#3f3d56"/><circle cx="618.5" cy="48.8" r="10" fill="#17925a"/><circle cx="490.5" cy="90.8" r="2" fill="#17925a"/><circle cx="388.5" cy="129.8" r="2" fill="#17925a"/><circle cx="275.5" cy="78.8" r="2" fill="#ff6584"/><circle cx="323.5" cy="28.8" r="2" fill="#fff"/><circle cx="657.5" cy="17.8" r="2" fill="#fff"/><circle cx="554.5" cy="51.8" r="2" fill="#fff"/><circle cx="672.5" cy="84.8" r="2" fill="#fff"/><circle cx="321.5" cy="117.8" r="2" fill="#fff"/><circle cx="168.5" cy="111.8" r="2" fill="#ff6584"/><polygon points="243.6 134.9 241.7 135.1 241.2 136.9 240.5 135.2 238.6 135.3 240 134.1 239.3 132.4 240.9 133.3 242.4 132.1 241.9 133.9 243.6 134.9" fill="#fff"/><polygon points="484.6 28.9 482.7 29.1 482.2 30.9 481.5 29.2 479.6 29.3 481 28.1 480.3 26.4 481.9 27.3 483.4 26.1 482.9 27.9 484.6 28.9" fill="#fff"/><polygon points="598.6 109.9 596.7 110.1 596.2 111.9 595.5 110.2 593.6 110.3 595 109.1 594.3 107.4 595.9 108.3 597.4 107.1 596.9 108.9 598.6 109.9" fill="#fff"/><polygon points="386.6 86.9 384.7 87.1 384.2 88.9 383.5 87.2 381.6 87.3 383 86.1 382.3 84.4 383.9 85.3 385.4 84.1 384.9 85.9 386.6 86.9" fill="#fff"/><polygon points="297.6 175.9 295.7 176.1 295.2 177.9 294.5 176.2 292.6 176.3 294 175.1 293.3 173.4 294.9 174.3 296.4 173.1 295.9 174.9 297.6 175.9" fill="#fff"/><polygon points="674.6 173.9 672.7 174.1 672.2 175.9 671.5 174.2 669.6 174.3 671 173.1 670.3 171.4 671.9 172.3 673.4 171.1 672.9 172.9 674.6 173.9" fill="#fff"/><polygon points="190.6 57.9 188.7 58.1 188.2 59.9 187.5 58.2 185.6 58.3 187 57.1 186.3 55.4 187.9 56.3 189.4 55.1 188.9 56.9 190.6 57.9" fill="#fff"/><path d="m410.7 359.6 3.2-50.6a8.2 8.2 0 0 1 8.6-7.6 8.2 8.2 0 0 1 7.7 9l-5 52.5-1.7 32a7.1 7.1 0 1 1-8.9 2.2Z" fill="#a0616a"/><path d="M410 320.3a2.4 2.4 0 0 1-.4-2.9 3.1 3.1 0 0 0 .5-1.8 2.9 2.9 0 0 0 0-.4 4.7 4.7 0 0 1 1-4.2 15 15 0 0 0 3-7.4 35.6 35.6 0 0 1 1.8-8.3c1.7-3.8 5.3-7.1 10.2-5.3a9.5 9.5 0 0 1 4.7 4.2c2.3 4 2.2 8.6 2 13.1l1-1.7a36.3 36.3 0 0 0 2 14.4c-1-.3-1.9 1.1-1.6 2.2a6.4 6.4 0 0 0 2.1 2.5c1 1 2 2.4 1 3.8a3 3 0 0 1-2.2 1 56.2 56.2 0 0 1-22.8-2.5c-1.7-.6-3.4-1.3-4.2-2.8s0-4 1.8-3.9Z" fill="#f2f2f2"/><polygon points="477.4 578.3 486.3 578.3 490.5 543.9 477.4 543.9 477.4 578.3" fill="#a0616a"/><path d="m474.5 572.2 14.2-.9v6.1l13.6 9.4a3.8 3.8 0 0 1-2.2 7h-17l-2.9-6-1.1 6h-6.4Z" fill="#2f2e41"/><polygon points="429.4 570.4 437.7 573.7 454.2 543.2 442 538.4 429.4 570.4" fill="#a0616a"/><path d="m429 563.7 13.5 4.4-2.2 5.7 9.2 13.6a3.8 3.8 0 0 1-4.5 5.7l-15.8-6.2-.5-6.7-3.3 5.2-6-2.3Z" fill="#2f2e41"/><path d="M435 356h41.6l15.8 112c0 .2-8.9 3.5-4.8 7.5l4 4c3.2 3.3-2.4 14.3-2.4 14.3l6.4 65.7H469l-13-135.7 17.6 65-22.9 70.7-16.5-9.7-3.2-8.9 6.4-6.4s1.7-9.6 1.7-15.3-4.9-.9 0-5.7c2-2.1 8-27.9 8-27.9l-19.3-61.8-4.6-27.6a34.7 34.7 0 0 1 3-20.9c2.6-5.3 5.8-12.1 8.8-19.4Z" fill="#2f2e41"/><path d="m432.6 287.3 2.8-8.3a9.8 9.8 0 0 1 8.6-6.7l2.5-.1a9.8 9.8 0 0 1 10 6.8 9.7 9.7 0 0 0 8.4 6.9c7.2.6 17.8 2.8 17.8 10.3 0 11.3-12.1 41.2-9.7 43.6s8 12.4 4.9 15.3c-.9.8-.2 4.5 0 7.1.6 4.8-33.2-5.8-42.9-3s-4.8-17.8-6.4-19.4a41 41 0 0 1-4-6 9.7 9.7 0 0 1-1.2-3l-2.8-14.1-.1-.7c-.4-3-2.6-23.3 5.7-26.3l6.4-2.4Z" fill="#f2f2f2"/><path d="M470.3 361.7 469 311a8.2 8.2 0 0 1 7.9-8.4 8.2 8.2 0 0 1 8.5 8.3l-.3 52.7 1.1 32a7.1 7.1 0 1 1-8.6 3Z" fill="#a0616a"/><path d="M464.6 321.4a2.4 2.4 0 0 1-.5-2.8 3.1 3.1 0 0 0 .2-2 2.9 2.9 0 0 0 0-.3 4.7 4.7 0 0 1 .6-4.3c1.5-2 2.1-5 2.3-7.6a35.6 35.6 0 0 1 1.2-8.5c1.2-3.9 4.6-7.5 9.6-6.1a9.5 9.5 0 0 1 5.1 3.7c2.7 3.8 3 8.4 3.2 13l.7-1.9a36.3 36.3 0 0 0 3.4 14.1c-1.1-.1-1.8 1.4-1.4 2.4a6.4 6.4 0 0 0 2.3 2.3c1 1 2.1 2.2 1.2 3.7a3 3 0 0 1-2 1.3 56.2 56.2 0 0 1-23-.6c-1.6-.4-3.4-1-4.4-2.4s-.2-3.9 1.5-4Z" fill="#f2f2f2"/><circle cx="443.8" cy="255.8" r="17.8" fill="#a0616a"/><path d="M427 282.8c0-2.1 2.7-3.2 4.7-2.5 2 .6 3.4 2.3 5 3.6 1.6 1.4 3.8 2.5 5.7 1.6 1.8-.8 2.5-3 3.8-4.3a9 9 0 0 1 6-2.5v-.6a12.8 12.8 0 0 1-.2-3.2 10 10 0 0 0 1.8 2.5 9.2 9.2 0 0 0 1.5 1.2 22 22 0 0 0 6.6-.5c2.6-.7 5-3 4.9-5.8a6.4 6.4 0 0 0-3.5-4.7c-1.8-1 4.4-5.5 2.6-6.3a14.3 14.3 0 0 1-7.7-8.2 10.7 10.7 0 0 1 1.5-9.6c1.6-.2-4.8.5-3.3 0-.1-1.1-.2.7-.1-.4.4 1 1-1.1 1.8-.4a6.3 6.3 0 0 0 3-3.3c1.2-3-.8-3.7-3.4-5.8a16 16 0 0 0-25 6.6c-4-2-9 0-11.8 3.3a20 20 0 0 0-3.5 12.4 41.8 41.8 0 0 0 9.6 26.9Z" fill="#2f2e41"/><polygon points="362.5 585.9 354.1 585.9 350.2 553.8 362.5 553.8 362.5 585.9" fill="#ffb6b6"/><path d="M362.8 594.5h-25.6v-.3a10 10 0 0 1 10-10l4.6-3.5 8.7 3.6h2.3Z" fill="#2f2e41"/><polygon points="400.3 585.9 392 585.9 388 553.8 400.3 553.8 400.3 585.9" fill="#ffb6b6"/><path d="M400.6 594.5H375v-.3a10 10 0 0 1 10-10l4.6-3.5 8.8 3.6h2.2Z" fill="#2f2e41"/><path d="M342.2 379.7s-13.4 16.7-10.8 21 6.8 2.9 2.6 7.4-5.9 4.6-3 8 5.5 76.2 5.5 76.2l13.5 75.9 14.7 1.3s2.8-9.3 2.8-12.9l.1-7.9c0-7.5-2.6-1.7 0-8.8s5.8-28 0-38-1.3-1.3-1.3-1.3l4.5-68.9 8.6 70.9s0 24.4 4.2 42l.7 24.9 18.1-.7s4.7-7.4 3-15.8 5-12.6 5-16.8l-.3-44.4-3.9-83.7s3.5-19-4.1-26.6-59.9-1.8-59.9-1.8Z" fill="#2f2e41"/><path d="m358.3 291 11.6-13.1 18.4 2 11.7 16.4c13 3 15.4 13.6 13.1 26.8-4.5 26.2-15.8 44.6-10.7 57.5 7.8 19.7 4 34.8-14.5 32s-61.5-21-49.4-33 8.4-27.5 8.4-27.5l1.4-37c-2.2-11.8-1.9-23 10-24.2Z" fill="#17925a"/><path d="m352.8 335.8-13-8.3c-8.3 5.7-36.7 34-36.7 34l-28.3 26a6.8 6.8 0 1 0 7.5 9l35.2-31.7Z" fill="#ffb6b6"/><path d="M368.2 296.4a16.2 16.2 0 0 1 2.7 24.8l-6.7 7s-32.7 37.4-42 41.7l-23.5 16-12.6-10 20.4-21.1s26.5-19.4 26.7-26.7c0-4.5 6.1-17.4 12.5-27.2a16.2 16.2 0 0 1 22.5-4.5Z" fill="#17925a"/><circle id="a4725208-37e7-4bba-8b44-e2dd7653a02c" data-name="ab6171fa-7d69-4734-b81c-8dff60f9761b" cx="571.1" cy="406.6" r="19" transform="rotate(-70.4 369 464.3)" fill="#ffb6b6"/><path d="M372.6 232.9a10.7 10.7 0 0 1 3.2-3.5 5.2 5.2 0 0 1 7.4 2.4 5.7 5.7 0 0 1 .7-2.6 14.5 14.5 0 0 0 3.7 2.7l-2-4.5c7.6-.5 12.9 1.5 15.3 7.1.7 1.6 3.2 1.6 4 3.2.7 1.7-.1 4.4-1.9 4.5 3.4 0 2.3 2.8 3.3 6.2 1 3.5.5 7.3-.6 10.9-1.5 4.5-5.5 7.6-9.5 9.9-2.6 1.5-7.7 3.9-7.7 3.9-14.2 7.4-23.3-7.8-20-22.8.8-3.4 3.6-7 1.6-9.6-1.5-2-4.4-1.6-6.9-1 1-3.4 7.6-4 9.4-6.8Z" fill="#2f2e41"/><ellipse cx="789.2" cy="725.6" rx="1.4" ry="10.4" transform="rotate(-87.8 615.8 747.6)" fill="#e6e6e6"/><ellipse cx="854.8" cy="731.4" rx="1.4" ry="10.4" transform="rotate(-87.8 681.4 753.4)" fill="#3f3d56"/><ellipse cx="762.7" cy="734.8" rx="1.4" ry="10.4" transform="rotate(-87.8 589.3 756.8)" fill="#ff6584"/><ellipse cx="833.4" cy="744" rx="1.4" ry="10.4" transform="rotate(-87.8 660 766)" fill="#ff6584"/><ellipse cx="736.2" cy="737.2" rx="1.3" ry="4.6" transform="rotate(-89.5 565.2 756.3)" fill="#e6e6e6"/><ellipse cx="761.7" cy="742.7" rx="1.3" ry="4.6" transform="rotate(-89.5 590.7 761.7)" fill="#e6e6e6"/><ellipse cx="720.1" cy="744.6" rx="1.3" ry="4.6" transform="rotate(-89.5 549 763.6)" fill="#3f3d56"/><ellipse cx="807.5" cy="735.7" rx="1.3" ry="4.6" transform="rotate(-89.5 636.5 754.7)" fill="#e6e6e6"/><ellipse cx="777.8" cy="730.4" rx="1.3" ry="4.6" transform="rotate(-89.5 606.8 749.4)" fill="#ff6584"/><ellipse cx="827.1" cy="727.7" rx="1.3" ry="4.6" transform="rotate(-89.5 656.1 746.7)" fill="#3f3d56"/><ellipse cx="789.7" cy="743" rx="1.3" ry="4.6" transform="rotate(-89.5 618.7 762)" fill="#3f3d56"/><ellipse cx="403.8" cy="725.3" rx="1.4" ry="9.5" transform="rotate(-87.8 230.4 747.4)" fill="#e6e6e6"/><ellipse cx="463.7" cy="730.9" rx="1.4" ry="9.5" transform="rotate(-87.8 290.3 753)" fill="#3f3d56"/><ellipse cx="379.6" cy="734.7" rx="1.4" ry="9.5" transform="rotate(-87.8 206.2 756.7)" fill="#ff6584"/><ellipse cx="444.2" cy="743.6" rx="1.4" ry="9.5" transform="rotate(-87.8 270.8 765.7)" fill="#ff6584"/><ellipse cx="355.4" cy="737.2" rx="1.3" ry="4.2" transform="rotate(-89.7 184.7 755.9)" fill="#e6e6e6"/><ellipse cx="378.7" cy="742.5" rx="1.3" ry="4.2" transform="rotate(-89.7 208 761.2)" fill="#e6e6e6"/><ellipse cx="340.7" cy="744.5" rx="1.3" ry="4.2" transform="rotate(-89.7 170 763.3)" fill="#3f3d56"/><ellipse cx="420.5" cy="735.4" rx="1.3" ry="4.2" transform="rotate(-89.7 249.8 754.1)" fill="#e6e6e6"/><ellipse cx="393.4" cy="730.2" rx="1.3" ry="4.2" transform="rotate(-89.7 222.7 748.9)" fill="#ff6584"/><ellipse cx="438.5" cy="727.3" rx="1.3" ry="4.2" transform="rotate(-89.7 267.7 746)" fill="#3f3d56"/><ellipse cx="404.2" cy="742.8" rx="1.3" ry="4.2" transform="rotate(-89.7 233.5 761.5)" fill="#3f3d56"/><path d="M687.5 508.6a55.4 55.4 0 0 1-36-13.3c-3.3-2.9-6.9-7.9-10.5-14.8a33.8 33.8 0 0 1-1.1-29.2 38.8 38.8 0 0 1-6.4 5.2l-1.2.8V456l-.1-2.7c0-5.2 4-10.5 2-15.3-7.6-20.3-31.8-40.4 3.3-71.8 3.3-2.9-1-8.7-1-13 0-43 46.7-107.6 78-78 18.2 17.2 56.3 29.4 74 53.4l.3.7-.7.3a41.8 41.8 0 0 1-11.1 3 53 53 0 0 0 12.4 1h.6l.2.6a78.4 78.4 0 0 1 2.3 19v.6a34.6 34.6 0 0 0 11.4 25.8 55.5 55.5 0 0 1 18.1 41c0 9-6.2 21-11.4 29.5a16.7 16.7 0 0 1-12.2 7.8 16.3 16.3 0 0 1-13.2-4.2 54 54 0 0 0 9.5 13.4l.7.8-.8.5a55.3 55.3 0 0 1-28 7.5h-.5a54 54 0 0 0-38.8 15.8 55.8 55.8 0 0 1-39.8 17Z" fill="#17925a"/><path d="M668 595.3a1 1 0 0 1-1-.9c0-.3-4.2-30.1-.4-69.9C670 488 681 435 714 391.6a1 1 0 1 1 1.6 1.2c-32.8 43-43.7 95.5-47.1 132-3.7 39.4.4 69 .4 69.4a1 1 0 0 1-1 1Z" fill="#3f3d56"/><path d="M698.2 451.7a1 1 0 0 1-.6-1.8 137.2 137.2 0 0 1 30.3-15.4 106.5 106.5 0 0 1 68.3-3.3 1 1 0 1 1-.6 1.9 104.6 104.6 0 0 0-67 3.3 135 135 0 0 0-29.8 15.2 1 1 0 0 1-.6.1Z" fill="#3f3d56"/><path d="M652 334.1a1 1 0 0 1 1.7-.7 137.2 137.2 0 0 1 17.6 29.1 106.5 106.5 0 0 1 8.2 68 1 1 0 1 1-2-.5c6.4-26.2-.9-50.7-8-66.6a135 135 0 0 0-17.3-28.7 1 1 0 0 1-.3-.6Z" fill="#3f3d56"/><path d="M94.7 491.6a54 54 0 0 0-38.8-15.8h-.5a55.3 55.3 0 0 1-28-7.5l-.8-.5.7-.8a54 54 0 0 0 9.5-13.4 16.3 16.3 0 0 1-13.1 4.2 16.7 16.7 0 0 1-12.3-7.8C6.2 441.5 0 429.6 0 420.5a55.5 55.5 0 0 1 18.1-41 34.6 34.6 0 0 0 11.4-25.8v-.7a78.4 78.4 0 0 1 2.3-19l.2-.5h.6a53 53 0 0 0 12.4-1 41.8 41.8 0 0 1-11-3l-.8-.3.3-.7c17.7-24 55.8-36.2 74-53.5 31.3-29.5 78 35 78 78 0 4.4-4.3 10.2-1 13.1 35.1 31.4 10.9 51.5 3.2 71.8-1.8 4.8 2.2 10 2.2 15.3l-.1 2.7v1.4l-1.2-.8a38.8 38.8 0 0 1-6.5-5.2 33.8 33.8 0 0 1-1 29.2c-3.7 7-7.3 12-10.6 14.8a55.3 55.3 0 0 1-75.8-3.7Z" fill="#17925a"/><path d="M154 595.3a1 1 0 0 0 1-.9c0-.3 4.2-30.1.5-69.9C152 488 141 435 107.9 391.6a1 1 0 1 0-1.6 1.2c32.8 43 43.8 95.5 47.2 132 3.7 39.4-.4 69-.5 69.4a1 1 0 0 0 1 1Z" fill="#3f3d56"/><path d="M123.8 451.7a1 1 0 0 0 .6-1.8 137.2 137.2 0 0 0-30.3-15.4 106.5 106.5 0 0 0-68.3-3.3 1 1 0 1 0 .6 1.9c25.7-8.2 50.6-2.7 67 3.3a135 135 0 0 1 29.8 15.2 1 1 0 0 0 .6.1Z" fill="#3f3d56"/><path d="M170 334.1a1 1 0 0 0-1.7-.7 137.2 137.2 0 0 0-17.5 29.1 106.5 106.5 0 0 0-8.3 68 1 1 0 1 0 2-.5c-6.3-26.2.9-50.7 8-66.6a135 135 0 0 1 17.4-28.7 1 1 0 0 0 .2-.6Z" fill="#3f3d56"/><rect x="245" y="284.6" width="102.4" height="2" transform="rotate(-.8 -10327.6 13269.2)" fill="#e6e6e6"/><path d="M161 137.7a5 5 0 1 1 2.1.5 5 5 0 0 1-2.2-.5Zm1.1-7.3a3 3 0 0 0-1.7 1.5 3 3 0 1 0 1.7-1.5Z" fill="#e6e6e6"/><circle cx="26.4" cy="134.9" r="18" fill="#3f3d56"/><rect x="865.7" y="188.4" width="2" height="102.4" transform="rotate(-89.2 695.3 259.3)" fill="#e6e6e6"/><path d="M622.6 92.2a5 5 0 1 1 2.2-.5 5 5 0 0 1-2.2.5Zm0-8a3 3 0 1 0 2.7 1.7 3 3 0 0 0-2.7-1.7Z" fill="#e6e6e6"/><circle cx="759.4" cy="88.9" r="18" fill="#3f3d56"/><rect x="689.8" y="339.4" width="102.4" height="2" transform="rotate(-78.9 554.3 379)" fill="#e6e6e6"/><path d="M557.6 132.8a5 5 0 1 1 .1 2.3 5 5 0 0 1 0-2.3Zm7.9 1.5a3 3 0 1 0-2.1 2.3 3 3 0 0 0 2.1-2.3Z" fill="#e6e6e6"/><circle cx="536.5" cy="268" r="18" fill="#3f3d56"/></svg>